<?xml version="1.0" encoding="UTF-8" standalone="no"?>
<!-- Generator: Adobe Illustrator 25.3.1, SVG Export Plug-In . SVG Version: 6.00 Build 0)  -->

<svg
   version="1.1"
   id="Layer_1"
   x="0px"
   y="0px"
   viewBox="0 0 80 80"
   style="enable-background:new 0 0 80 80;"
   xml:space="preserve"
   sodipodi:docname="download.svg"
   inkscape:export-filename="logo.svg"
   inkscape:export-xdpi="96"
   inkscape:export-ydpi="96"
   inkscape:version="1.4.2 (f4327f4, 2025-05-13)"
   xmlns:inkscape="http://www.inkscape.org/namespaces/inkscape"
   xmlns:sodipodi="http://sodipodi.sourceforge.net/DTD/sodipodi-0.dtd"
   xmlns:xlink="http://www.w3.org/1999/xlink"
   xmlns="http://www.w3.org/2000/svg"
   xmlns:svg="http://www.w3.org/2000/svg"><defs
   id="defs1"><linearGradient
     id="linearGradient2"
     inkscape:collect="always"><stop
       style="stop-color:#3eb999;stop-opacity:1;"
       offset="0"
       id="stop2" /><stop
       style="stop-color:#00d4aa;stop-opacity:0;"
       offset="1"
       id="stop3" /></linearGradient><linearGradient
     inkscape:collect="always"
     xlink:href="#linearGradient2"
     id="linearGradient3"
     x1="8.5875702"
     y1="36.790962"
     x2="7.8644066"
     y2="2.1694915"
     gradientUnits="userSpaceOnUse" /></defs><sodipodi:namedview
   id="namedview1"
   pagecolor="#ffffff"
   bordercolor="#000000"
   borderopacity="0.25"
   inkscape:showpageshadow="2"
   inkscape:pageopacity="0.0"
   inkscape:pagecheckerboard="0"
   inkscape:deskcolor="#d1d1d1"
   inkscape:zoom="11.0625"
   inkscape:cx="40"
   inkscape:cy="32.768362"
   inkscape:window-width="3072"
   inkscape:window-height="1694"
   inkscape:window-x="2293"
   inkscape:window-y="-11"
   inkscape:window-maximized="1"
   inkscape:current-layer="Layer_1" />
<style
   type="text/css"
   id="style1">
	.st0{fill-rule:evenodd;clip-rule:evenodd;fill:#14202A;}
</style>
<g
   inkscape:groupmode="layer"
   id="layer1"
   inkscape:label="Layer 1"
   style="fill-opacity:1;fill:url(#linearGradient3)"><rect
     style="fill:url(#linearGradient3);fill-opacity:1"
     id="rect2"
     width="78.82486"
     height="79.276833"
     x="0.72316384"
     y="0.54237288" /></g><path
   class="st0"
   d="M65.7,33.5H53.9l-9.3-21.2c-0.1-0.3-0.4-0.5-0.7-0.5H36c-0.3,0-0.6,0.2-0.7,0.5l-9.3,21.2H14.3  c-0.4,0-0.8,0.3-0.8,0.8v5.5c0,0.4,0.3,0.8,0.8,0.8H23l-9,20.6c-0.1,0.2-0.1,0.5,0.1,0.7c0.1,0.2,0.4,0.3,0.6,0.3h6.8  c0.3,0,0.6-0.2,0.7-0.5L40,19.4l17.8,42.3c0.1,0.3,0.4,0.5,0.7,0.5h6.8c0.3,0,0.5-0.1,0.6-0.3c0.1-0.2,0.2-0.5,0.1-0.7l-9-20.6h8.7  c0.4,0,0.8-0.3,0.8-0.8v-5.5C66.4,33.8,66.1,33.5,65.7,33.5z"
   id="path1" />
<text
   xml:space="preserve"
   style="text-align:start;writing-mode:lr-tb;direction:ltr;text-anchor:start;fill:#ffffff"
   x="3.435029"
   y="61.468929"
   id="text1"
   inkscape:label="text1"><tspan
     sodipodi:role="line"
     id="tspan1"
     x="3.435029"
     y="61.468929"
     style="font-style:normal;font-variant:normal;font-weight:normal;font-stretch:normal;font-size:42.6667px;font-family:'Edwardian Script ITC';-inkscape-font-specification:'Edwardian Script ITC, Normal';font-variant-ligatures:normal;font-variant-caps:normal;font-variant-numeric:normal;font-variant-east-asian:normal;fill:#ffffff">Fans</tspan></text></svg>
