<?xml version="1.0" encoding="UTF-8"?>
<!-- Generator: Adobe Illustrator 25.3.1, SVG Export Plug-In . SVG Version: 6.00 Build 0)  -->
<svg enable-background="new 0 0 80 80" version="1.1" viewBox="0 0 80 80" xml:space="preserve" xmlns="http://www.w3.org/2000/svg" xmlns:xlink="http://www.w3.org/1999/xlink"><defs><linearGradient id="linearGradient3" x1="8.5876" x2="7.8644" y1="36.791" y2="2.1695" gradientUnits="userSpaceOnUse"><stop stop-color="#3eb999" offset="0"/><stop stop-color="#00d4aa" stop-opacity="0" offset="1"/></linearGradient></defs>
<style type="text/css">
	.st0{fill-rule:evenodd;clip-rule:evenodd;fill:#14202A;}
</style>
<g fill="url(#linearGradient3)"><rect x=".72316" y=".54237" width="78.825" height="79.277" fill="url(#linearGradient3)"/></g><path class="st0" d="m65.7 33.5h-11.8l-9.3-21.2c-0.1-0.3-0.4-0.5-0.7-0.5h-7.9c-0.3 0-0.6 0.2-0.7 0.5l-9.3 21.2h-11.7c-0.4 0-0.8 0.3-0.8 0.8v5.5c0 0.4 0.3 0.8 0.8 0.8h8.7l-9 20.6c-0.1 0.2-0.1 0.5 0.1 0.7 0.1 0.2 0.4 0.3 0.6 0.3h6.8c0.3 0 0.6-0.2 0.7-0.5l17.8-42.3 17.8 42.3c0.1 0.3 0.4 0.5 0.7 0.5h6.8c0.3 0 0.5-0.1 0.6-0.3s0.2-0.5 0.1-0.7l-9-20.6h8.7c0.4 0 0.8-0.3 0.8-0.8v-5.5c-0.1-0.5-0.4-0.8-0.8-0.8z"/>
<text x="3.435029" y="61.468929" fill="#ffffff" xml:space="preserve"><tspan x="3.435029" y="61.468929" fill="#ffffff" font-family="'Edwardian Script ITC'" font-size="42.667px" style="font-variant-caps:normal;font-variant-east-asian:normal;font-variant-ligatures:normal;font-variant-numeric:normal">Fans</tspan></text></svg>
